<?xml version="1.0" encoding="utf-8"?>
<!-- Generator: Adobe Illustrator 19.0.0, SVG Export Plug-In . SVG Version: 6.00 Build 0)  -->
<svg version="1.1" id="Layer_1" xmlns="http://www.w3.org/2000/svg" xmlns:xlink="http://www.w3.org/1999/xlink" x="0px" y="0px"
	 viewBox="0 0 472.8 111.4" style="enable-background:new 0 0 472.8 111.4;" xml:space="preserve">
<style type="text/css">
	.st0{fill:#010101;}
</style>
<g>
	<g>
		<path class="st0" d="M0,108.9v-8.8l65.2-86.3H19c-1.7,0-2.1,1.3-2.3,2.7l-2.5,13.8L3.1,30.9V2.1h80.3v9.2L18.6,97.2h49.3
			c1.7,0,2.1-1.3,2.3-2.7l2.5-15.9L83.8,78v30.9H0z"/>
		<path class="st0" d="M180.4,108.9l-1.9-14l-0.6-0.2c-11.1,10.2-22.8,16.7-38.7,16.7c-26.1,0-29.1-18-29.1-27.8
			c0-20.9,13-29.7,37.6-32l29.9-2.7V37.2c0-17.6-3.6-25.3-23.8-25.3c-14,0-24.7,0-24.9,16.9l-13.4-1.7C115.6,2.5,138.6,0,154,0
			c28.6,0,37.6,8.4,37.6,36.8v57.3c0,3.3,0.2,3.8,3.3,4.2l10.9,1.5v9.2H180.4z M177.7,60l-27.4,2.5c-20.1,1.9-25.5,7.7-25.5,19.4
			c0,12.5,6.3,17.8,17.1,17.8c14.4,0,28-9.4,35.7-19.6V60z"/>
		<path class="st0" d="M227.8,108.9v-8.8L293,13.8h-46.2c-1.7,0-2.1,1.3-2.3,2.7L242,30.3L231,30.9V2.1h80.3v9.2l-64.8,85.9h49.3
			c1.7,0,2.1-1.3,2.3-2.7l2.5-15.9l11.1-0.6v30.9H227.8z"/>
		<path class="st0" d="M469.4,102.6c-9.4,5.4-21.3,8.8-35.9,8.8c-37,0-48.7-24.9-48.7-56.4c0-37.4,20.5-55,46-55
			c24.7,0,42,13.6,42,49.3c0,2.9-0.2,5.8-0.4,9h-72.9c0.6,23.8,9.8,40.3,35.1,40.3c13,0,19.7-2.3,29.7-7.7L469.4,102.6z M458.4,47
			C458,21.1,445.6,12.3,431,12.3c-15.9,0-29.3,8.8-31.1,34.7H458.4z"/>
	</g>
	<g>
		<rect x="343.2" y="2" class="st0" width="14.4" height="70.4"/>
		<path class="st0" d="M360.9,98.9c0-5.8-4.7-10.6-10.6-10.6c-5.8,0-10.6,4.7-10.6,10.6c0,5.8,4.7,10.6,10.6,10.6
			C356.2,109.5,360.9,104.8,360.9,98.9z"/>
	</g>
</g>
</svg>
